<?xml version="1.0" encoding="iso-8859-1"?>
<!-- Generator: Adobe Illustrator 19.0.0, SVG Export Plug-In . SVG Version: 6.00 Build 0)  -->
<svg version="1.1" id="&#x56FE;&#x5C42;_1" xmlns="http://www.w3.org/2000/svg" xmlns:xlink="http://www.w3.org/1999/xlink" x="0px" y="0px" viewBox="0 0 636 237" style="enable-background:new 0 0 636 237;" xml:space="preserve">
<path style="fill-rule:evenodd;clip-rule:evenodd;fill:#E9584C;" d="M24.637,79.775c0,0,14.054-29.464,28.082-30.987
	c4.045-0.439,3.943,4.547,3.873,13.557c-0.172,22.239-7.747,62.943-7.747,62.943L34.32,192.104c0,0-2.899,16.525,2.905,26.145
	c5.922,9.815,20.895,6.062,24.209,0.968c0.762-1.171,5.826-8.468,6.778-12.589c0.952-4.121,44.239-142.683,67.785-153.968
	c23.546-11.285,17.894,13.54,13.557,39.702c-4.337,26.162-26.298,47.277-7.747,113.297c6.406,22.796,39.82,23.228,52.291,19.367
	c25.731-7.967,26.128-16.645,30.019-16.462c2.873,0.135,24.321,32.562,57.133,3.873c29.527-25.817,18.242-71.277,13.557-78.436
	c-3.947-6.031,32.772,20.896,34.751,25.066c3.657,7.704-1.54,49.368,27.224,63.054c15.564,7.406,56.533-20.277,62.943-23.24
	c6.093-2.817,11.194,52.482,93.93,3.873c3.33-1.956-5.04,22.636,39.702,21.304c27.044-0.805,67.468-21.787,73.595-27.114
	c0.369-0.321,0-26.145,0-26.145c-0.377-0.875-41.527,24.508-41.639,21.304c-1.014-29.067-6.499-33.838-8.715-44.544
	c-0.478-2.31,0.429-3.978,0.968-4.842c6.779-10.867,15.309-13.628,15.494-21.304c0.185-7.676-5.406-12.445-14.525-12.589
	c-20.646-0.325-36.594,40.286-60.038,60.038c-23.444,19.752-62.998,43.643-71.658,18.399c-0.153-0.447,7.557-2.294,16.462-6.778
	c3.572-1.799,32.404-18.875,31.956-39.702c-0.14-6.509-1.151-18.44-9.154-23.238c-48.758-29.237-72.002,30.257-71.22,55.194
	c0.215,6.845-40.602,26.525-46.455,24.232c-16.318-6.392-11.411-19.081-12.615-25.2c-1.203-6.119,0.3-29.226,0.968-36.797
	c0.129-1.46,8.71-9.093,12.925-17.032c1.053-1.984,29.11-0.397,33.556-0.398c12.005-0.002,20.143,1.045,20.336-9.664
	c0.172-9.492-5.856-8.345-6.78-8.734c-1.524-0.642-27.42-0.001-32.924-0.968c-4.669-0.821,36.151-47.624,14.479-77.244
	c-3.76-5.139-9.689-10.312-17.384-9.907c-27.966,1.47-46.311,77.152-46.481,83.278c-0.081,2.903-37.469-3.895-35.829,7.747
	c0.762,5.412,3.718,6.237,5.81,6.778c9.36,2.424,18.005,2.664,26.145,3.873c0.451,0.067-0.289,8.896-0.968,16.462
	c-0.306,3.413-0.796,7.505-0.968,8.715c-0.278,1.948-19.411-17.452-28.082-21.304c-22.977-10.206-55.796-13.753-77.594,21.694
	c-13.262,21.566-6.227,40.7-8.471,46.033c-3.45,8.199-65.361,52.278-45.685-49.334c7.233-37.352,14.115-72.093,9.737-92.956
	c-5.919-28.211-30.096-34.627-62.943-2.905c-11.601,11.203-18.593,30.726-27.114,45.512c-8.127,14.103-10.223,30.006-18.087,44.598
	c-14.13,26.219,33.876-84.374,0.216-102.303C39.979,10.562,17.751,41.761,10.111,71.06C8.874,75.805,18.214,85.098,24.637,79.775z"
	/>
<path style="fill-rule:evenodd;clip-rule:evenodd;fill:#FDFBFB;" d="M251.115,188.968c-0.092,0.057,11.803,24.834,29.936-4.886c16.733-27.427-0.727-79.32-23.956-42.097C242.453,165.448,254.41,186.942,251.115,188.968z"/>
<path style="fill-rule:evenodd;clip-rule:evenodd;fill:#FDFDFE;" d="M449.237,170.281c0.148,1.574,34.181-9.808,37.684-25.368c5.51-24.475-20.84-14.101-24.225-11.531C454.121,139.891,446.798,144.315,449.237,170.281z"/>
<path style="fill-rule:evenodd;clip-rule:evenodd;fill:#FFFFFF;" d="M542.115,191.968c0,0,26.389-28.139,31-31
	c2.911-1.806,4.661,27.813,2,34c-2.01,4.673-6.399,7.539-10,8C551.709,204.683,545.646,195.07,542.115,191.968z"/>
<path style="fill-rule:evenodd;clip-rule:evenodd;fill:#FDFDFE;fill-opacity=0;" d="M381.115,44.968c6.793-20.488,19.586-12.286,16,0
	c-3.875,13.275-13.794,38.647-20,46c0,0-1.979,1-4,1c-1.979,0-4-1-4-1C368.16,90.375,374.197,65.833,381.115,44.968z"/>
</svg>
